<svg width="38" height="31" viewBox="0 0 38 31" fill="none" xmlns="http://www.w3.org/2000/svg">
<g clip-path="url(#clip0_625_1451)">
<path d="M9.56519 26.511V25.0447C9.57409 24.9213 9.55567 24.7976 9.51117 24.6817C9.46666 24.5658 9.39708 24.4604 9.30708 24.3725C9.21708 24.2846 9.10872 24.2163 8.98922 24.1721C8.86973 24.1279 8.74185 24.1088 8.61412 24.1161C8.44694 24.1055 8.2799 24.1385 8.13041 24.2116C7.98093 24.2847 7.85446 24.3951 7.76421 24.5315C7.68195 24.3992 7.56429 24.2908 7.42362 24.2177C7.28295 24.1446 7.12447 24.1095 6.96489 24.1161C6.82578 24.1093 6.68725 24.1378 6.56302 24.1986C6.4388 24.2595 6.33318 24.3507 6.25663 24.4631V24.1747H5.73047V26.511H6.26166V25.2157C6.25017 25.1358 6.25716 25.0544 6.2821 24.9774C6.30704 24.9004 6.34932 24.8297 6.40591 24.7704C6.4625 24.711 6.53199 24.6645 6.60939 24.6342C6.68679 24.6039 6.77018 24.5905 6.85357 24.595C7.20264 24.595 7.37973 24.815 7.37973 25.2108V26.511H7.91092V25.2157C7.9003 25.136 7.90788 25.0549 7.93314 24.9783C7.9584 24.9016 8.00072 24.8313 8.05713 24.7721C8.11354 24.713 8.18267 24.6664 8.25967 24.6359C8.33667 24.6053 8.41966 24.5913 8.50283 24.595C8.86199 24.595 9.03399 24.815 9.03399 25.2108V26.511H9.56519ZM17.4269 24.1747H16.5669V23.466H16.0357V24.1747H15.5449V24.639H16.0357V25.7045C16.0357 26.247 16.2532 26.5696 16.8754 26.5696C17.1079 26.5703 17.3359 26.5076 17.5331 26.3888L17.3814 25.9538C17.2403 26.0351 17.0801 26.0805 16.9159 26.0857C16.6528 26.0857 16.5669 25.9293 16.5669 25.6948V24.639H17.4269V24.1747ZM21.9142 24.1161C21.7859 24.1124 21.659 24.1423 21.5468 24.2025C21.4346 24.2627 21.3413 24.351 21.2768 24.4582V24.1747H20.7557V26.511H21.2818V25.2011C21.2818 24.815 21.4538 24.5999 21.7979 24.5999C21.9104 24.5984 22.0221 24.6184 22.1267 24.6586L22.2886 24.1796C22.1684 24.138 22.0418 24.1166 21.9142 24.1161ZM15.1301 24.3604C14.8323 24.1893 14.4899 24.1045 14.1436 24.1161C13.5314 24.1161 13.1369 24.3995 13.1369 24.8638C13.1369 25.2451 13.4303 25.4797 13.9716 25.553L14.2195 25.5872C14.5078 25.6262 14.6444 25.6996 14.6444 25.8316C14.6444 26.0124 14.4522 26.1151 14.093 26.1151C13.8041 26.1231 13.5208 26.037 13.2886 25.8707L13.0407 26.2666C13.3472 26.4733 13.7143 26.5796 14.0879 26.5696C14.7861 26.5696 15.1908 26.2519 15.1908 25.8071C15.1908 25.3966 14.8721 25.1815 14.346 25.1082L14.0981 25.074C13.8704 25.0447 13.6883 25.0007 13.6883 24.8443C13.6883 24.6732 13.8602 24.5706 14.1486 24.5706C14.4135 24.5745 14.6729 24.6434 14.9024 24.771L15.1301 24.3604ZM29.2244 24.1161C29.0962 24.1124 28.9692 24.1423 28.857 24.2025C28.7449 24.2627 28.6516 24.351 28.587 24.4582V24.1747H28.0659V26.511H28.592V25.2011C28.592 24.815 28.7641 24.5999 29.1081 24.5999C29.2206 24.5984 29.3324 24.6184 29.4369 24.6586L29.5988 24.1796C29.4787 24.138 29.3521 24.1166 29.2244 24.1161ZM22.4454 25.3428C22.4384 25.5074 22.4671 25.6715 22.5298 25.8248C22.5924 25.978 22.6875 26.1168 22.809 26.2324C22.9305 26.3479 23.0758 26.4376 23.2353 26.4957C23.3949 26.5538 23.5652 26.579 23.7355 26.5696C24.0513 26.5849 24.3617 26.4856 24.6056 26.291L24.3526 25.8804C24.1707 26.0144 23.949 26.0881 23.7203 26.0906C23.5231 26.079 23.3379 25.9952 23.2026 25.8563C23.0672 25.7173 22.9918 25.5336 22.9918 25.3428C22.9918 25.152 23.0672 24.9683 23.2026 24.8294C23.3379 24.6904 23.5231 24.6066 23.7203 24.595C23.949 24.5975 24.1707 24.6712 24.3526 24.8052L24.6056 24.3946C24.3617 24.2001 24.0513 24.1007 23.7355 24.1161C23.5652 24.1067 23.3949 24.1319 23.2353 24.19C23.0758 24.248 22.9306 24.3377 22.8091 24.4533C22.6876 24.5688 22.5924 24.7076 22.5298 24.8608C22.4671 25.014 22.4384 25.1782 22.4454 25.3428ZM27.3728 25.3428V24.1747H26.8467V24.4582C26.7569 24.3464 26.6407 24.257 26.5078 24.1974C26.3749 24.1379 26.2292 24.11 26.0828 24.1161C25.7568 24.1315 25.4494 24.2675 25.2243 24.4959C24.9993 24.7242 24.8737 25.0275 24.8737 25.3428C24.8737 25.6582 24.9993 25.9614 25.2243 26.1898C25.4494 26.4182 25.7568 26.5542 26.0828 26.5696C26.2292 26.5757 26.3749 26.5477 26.5078 26.4882C26.6407 26.4287 26.7569 26.3393 26.8467 26.2274V26.511H27.3728V25.3428ZM25.415 25.3428C25.4232 25.2049 25.4729 25.0724 25.5581 24.9615C25.6433 24.8506 25.7602 24.7663 25.8945 24.7188C26.0287 24.6714 26.1744 24.6629 26.3135 24.6945C26.4527 24.7261 26.5792 24.7963 26.6775 24.8966C26.7758 24.9968 26.8416 25.1226 26.8668 25.2586C26.892 25.3945 26.8754 25.5346 26.8192 25.6615C26.763 25.7885 26.6695 25.8967 26.5504 25.973C26.4312 26.0492 26.2915 26.0901 26.1486 26.0906C26.0484 26.0919 25.949 26.0732 25.8567 26.0355C25.7644 25.9979 25.6812 25.9422 25.6123 25.8719C25.5433 25.8017 25.4902 25.7184 25.4563 25.6273C25.4223 25.5362 25.4083 25.4394 25.415 25.3428ZM19.066 24.1161C18.7379 24.1327 18.4292 24.2715 18.2048 24.5033C17.9803 24.7351 17.8575 25.0419 17.8621 25.3593C17.8666 25.6767 17.9983 25.98 18.2293 26.2057C18.4604 26.4314 18.773 26.5618 19.1014 26.5696C19.4624 26.5819 19.8153 26.4653 20.093 26.2421L19.8349 25.8658C19.6352 26.0205 19.3877 26.1065 19.1318 26.1102C18.9579 26.1243 18.7852 26.0725 18.6502 25.9658C18.5151 25.859 18.4284 25.7057 18.4083 25.5383H20.2043C20.2093 25.4748 20.2144 25.4112 20.2144 25.3428C20.2093 24.6146 19.7439 24.1161 19.066 24.1161ZM19.0559 24.5706C19.2148 24.5676 19.3684 24.6256 19.4832 24.7319C19.5979 24.8381 19.6644 24.984 19.668 25.1375H18.4134C18.4226 24.9807 18.495 24.8336 18.6151 24.7276C18.7351 24.6217 18.8933 24.5653 19.0559 24.5706ZM32.2548 25.3428V23.2363H31.7286V24.4582C31.6388 24.3464 31.5226 24.257 31.3897 24.1974C31.2568 24.1379 31.1111 24.11 30.9647 24.1161C30.6387 24.1315 30.3313 24.2675 30.1062 24.4959C29.8812 24.7242 29.7556 25.0275 29.7556 25.3428C29.7556 25.6582 29.8812 25.9615 30.1062 26.1898C30.3313 26.4182 30.6387 26.5542 30.9647 26.5696C31.1111 26.5756 31.2568 26.5477 31.3897 26.4882C31.5226 26.4287 31.6388 26.3393 31.7286 26.2274V26.511H32.2548V25.3428ZM30.297 25.3428C30.3051 25.2049 30.3549 25.0724 30.4401 24.9615C30.5253 24.8507 30.6422 24.7663 30.7764 24.7189C30.9107 24.6715 31.0563 24.663 31.1955 24.6946C31.3346 24.7262 31.4611 24.7964 31.5594 24.8967C31.6577 24.9969 31.7235 25.1227 31.7487 25.2586C31.7739 25.3945 31.7573 25.5346 31.7011 25.6616C31.6449 25.7885 31.5514 25.8968 31.4322 25.973C31.3131 26.0492 31.1734 26.0901 31.0305 26.0906C30.9303 26.0919 30.8309 26.0731 30.7386 26.0355C30.6463 25.9979 30.5631 25.9422 30.4942 25.8719C30.4253 25.8016 30.3722 25.7184 30.3382 25.6273C30.3043 25.5362 30.2902 25.4394 30.297 25.3428ZM12.5298 25.3428V24.1747H12.0036V24.4582C11.9138 24.3464 11.7976 24.257 11.6647 24.1974C11.5318 24.1379 11.3861 24.11 11.2397 24.1161C10.9137 24.1315 10.6063 24.2675 10.3812 24.4959C10.1562 24.7242 10.0306 25.0275 10.0306 25.3428C10.0306 25.6582 10.1562 25.9614 10.3812 26.1898C10.6063 26.4182 10.9137 26.5542 11.2397 26.5696C11.3861 26.5757 11.5318 26.5477 11.6647 26.4882C11.7976 26.4287 11.9138 26.3393 12.0036 26.2274V26.511H12.5298V25.3428ZM10.572 25.3428C10.5801 25.2049 10.6299 25.0724 10.7151 24.9615C10.8003 24.8507 10.9172 24.7663 11.0514 24.7189C11.1857 24.6715 11.3313 24.663 11.4705 24.6946C11.6096 24.7262 11.7361 24.7964 11.8344 24.8967C11.9327 24.9969 11.9985 25.1227 12.0237 25.2586C12.0489 25.3946 12.0323 25.5346 11.9761 25.6616C11.9198 25.7885 11.8264 25.8968 11.7072 25.973C11.5881 26.0492 11.4484 26.0901 11.3055 26.0906C11.2053 26.0919 11.1059 26.0731 11.0136 26.0355C10.9213 25.9979 10.8381 25.9422 10.7692 25.8719C10.7003 25.8016 10.6472 25.7184 10.6132 25.6273C10.5793 25.5362 10.5652 25.4394 10.572 25.3428Z" fill="white"/>
<path d="M22.927 6.36914H14.958V20.2043H22.927V6.36914Z" fill="#DDDDDD"/>
<path d="M15.4621 13.287C15.4609 11.9546 15.7734 10.6394 16.3761 9.4409C16.9787 8.24241 17.8557 7.19209 18.9406 6.36946C17.5971 5.3492 15.9836 4.71472 14.2844 4.53853C12.5853 4.36234 10.8691 4.65156 9.3321 5.37312C7.79506 6.09468 6.49915 7.21947 5.59251 8.61894C4.68588 10.0184 4.20508 11.6361 4.20508 13.287C4.20508 14.938 4.68588 16.5557 5.59251 17.9552C6.49915 19.3546 7.79506 20.4794 9.3321 21.201C10.8691 21.9225 12.5853 22.2118 14.2844 22.0356C15.9836 21.8594 17.5971 21.2249 18.9406 20.2046C17.8557 19.382 16.9787 18.3317 16.3761 17.1332C15.7734 15.9347 15.4609 14.6195 15.4621 13.287Z" fill="white"/>
<path d="M33.6775 13.287C33.6775 14.938 33.1968 16.5557 32.2902 17.9551C31.3836 19.3546 30.0878 20.4794 28.5508 21.201C27.0138 21.9225 25.2976 22.2118 23.5985 22.0356C21.8994 21.8594 20.2859 21.2249 18.9424 20.2046C20.0264 19.3812 20.9027 18.3307 21.5052 17.1324C22.1078 15.9341 22.4209 14.6193 22.4209 13.287C22.4209 11.9548 22.1078 10.64 21.5052 9.44171C20.9027 8.24341 20.0264 7.19292 18.9424 6.36946C20.2859 5.3492 21.8994 4.71472 23.5985 4.53853C25.2976 4.36234 27.0138 4.65157 28.5508 5.37313C30.0878 6.0947 31.3836 7.2195 32.2902 8.61897C33.1968 10.0184 33.6775 11.6361 33.6775 13.287Z" fill="#CECECE"/>
</g>
<defs>
<clipPath id="clip0_625_1451">
<rect width="37.1387" height="29.4307" fill="white" transform="translate(0.37207 0.785156)"/>
</clipPath>
</defs>
</svg>
