<svg width="69" height="23" viewBox="0 0 69 23" fill="none" xmlns="http://www.w3.org/2000/svg">
<path fill-rule="evenodd" clip-rule="evenodd" d="M11.2386 3.2685C11.7785 3.2652 13.383 3.11774 14.0627 5.45832C14.5205 7.03497 15.2497 9.61758 16.2504 13.2062H16.658C17.7312 9.42283 18.4684 6.84021 18.8697 5.45832C19.5564 3.09336 21.2732 3.26854 21.9599 3.26854L27.2581 3.26855V20.086H21.858V10.1752H21.4959L18.4856 20.086H14.4228L11.4125 10.1679H11.0504V20.086H5.65039V3.26855L11.2386 3.2685ZM35.0124 3.26855V13.1867H35.4432L39.1049 5.03108C39.8157 3.40808 41.3306 3.26855 41.3306 3.26855H46.5563V20.0861H41.0434V10.1679H40.6127L37.0228 18.3235C36.312 19.9392 34.7252 20.0861 34.7252 20.0861H29.4996V3.26855H35.0124ZM65.611 11.2603C64.8421 13.4839 62.4271 15.0764 59.7535 15.0764H53.9722V20.0861H48.7299V11.2603H65.611Z" fill="white"/>
<path fill-rule="evenodd" clip-rule="evenodd" d="M60.0065 3.26953H48.4551C48.73 7.01368 51.8899 10.2189 55.161 10.2189H65.9754C66.5995 7.10709 64.4511 3.26953 60.0065 3.26953Z" fill="url(#paint0_linear_625_1460)"/>
<defs>
<linearGradient id="paint0_linear_625_1460" x1="57.2683" y1="3.26953" x2="66.04" y2="3.26953" gradientUnits="userSpaceOnUse">
<stop stop-color="#EDEDED"/>
<stop offset="1" stop-color="#BABABA"/>
</linearGradient>
</defs>
</svg>
