<svg width="53" height="17" viewBox="0 0 53 17" fill="none" xmlns="http://www.w3.org/2000/svg">
<path d="M34.222 0.117188C30.4941 0.117188 27.1627 2.02154 27.1627 5.53997C27.1627 9.57494 33.0711 9.85363 33.0711 11.8807C33.0711 12.7342 32.0786 13.4982 30.3836 13.4982C27.978 13.4982 26.1801 12.4307 26.1801 12.4307L25.4108 15.9811C25.4108 15.9811 27.482 16.8829 30.2318 16.8829C34.3075 16.8829 37.5146 14.8851 37.5146 11.3065C37.5146 7.04279 31.5817 6.77238 31.5817 4.89093C31.5817 4.22233 32.3964 3.48974 34.0866 3.48974C35.9936 3.48974 37.5495 4.26616 37.5495 4.26616L38.3024 0.83699C38.3024 0.83699 36.6095 0.117188 34.222 0.117188ZM0.115657 0.375993L0.0253906 0.893603C0.0253906 0.893603 1.59371 1.17649 3.00623 1.74079C4.82497 2.38787 4.95453 2.76456 5.26084 3.93456L8.59864 16.616H13.073L19.966 0.375993H15.502L11.0728 11.4177L9.26538 2.05823C9.09963 0.987046 8.26004 0.375993 7.23234 0.375993H0.115657ZM21.7611 0.375993L18.2592 16.616H22.5161L26.0057 0.375993H21.7611ZM45.5032 0.375993C44.4767 0.375993 43.9329 0.917628 43.5338 1.86412L37.2972 16.616H41.7613L42.625 14.1574H48.0635L48.5887 16.616H52.5276L49.0913 0.375993H45.5032ZM46.0838 4.76355L47.407 10.8576H43.862L46.0838 4.76355Z" fill="white"/>
</svg>
