<svg width="77" height="64" viewBox="0 0 77 64" fill="none" xmlns="http://www.w3.org/2000/svg">
<path d="M70.0232 0.565058C70.0232 0.565058 77.0531 -2.20522 76.4651 4.52207C76.2714 7.29234 74.5144 16.9892 73.1464 27.476L68.4598 58.5433C68.4598 58.5433 68.069 63.0946 64.5531 63.8864C61.0391 64.6763 55.7662 61.1161 54.7891 60.3243C54.0074 59.7301 40.143 50.825 35.261 46.473C33.893 45.2844 32.3296 42.9109 35.4564 40.1407L55.9598 20.3519C58.3031 17.9785 60.6464 12.4379 50.8824 19.1652L23.5409 37.9628C23.5409 37.9628 20.4159 39.9432 14.5585 38.1622L1.86308 34.2033C1.86308 34.2033 -2.82352 31.2356 5.18351 28.2678C24.7134 18.9677 48.7345 9.47016 70.0196 0.565058H70.0232Z" fill="white"/>
</svg>
