<svg width="85" height="47" viewBox="0 0 85 47" fill="none" xmlns="http://www.w3.org/2000/svg">
<path fill-rule="evenodd" clip-rule="evenodd" d="M46.3269 46.9638C47.2239 46.8403 48.0581 46.4341 48.7085 45.8042C49.4365 45.0502 49.4365 43.6462 49.4365 43.6462C49.4365 43.6462 49.3325 37.0526 52.4525 36.0854C55.5205 35.1234 59.4205 42.4502 63.5805 45.2686C66.7525 47.4214 69.1445 46.9586 69.1445 46.9586L80.2725 46.8078C80.2725 46.8078 86.1069 46.4438 83.3509 41.925C83.1429 41.5662 81.7909 38.5866 75.1349 32.4766C68.1565 26.1066 69.0925 27.1362 77.4749 16.0914C82.5709 9.36263 84.6509 5.25463 83.9749 3.50743C83.4029 1.86423 79.6069 2.26983 79.6069 2.26983L67.1217 2.37383C67.1217 2.37383 66.1857 2.26983 65.5097 2.68583C64.8337 3.09143 64.4177 4.02223 64.4177 4.02223C64.4177 4.02223 62.4417 9.25863 59.7897 13.6786C54.1633 23.0178 51.9273 23.5326 51.0433 22.919C48.9477 21.5774 49.4833 17.511 49.4833 14.5938C49.4833 5.55103 50.8873 1.74983 46.7793 0.777434C45.4273 0.465434 44.4185 0.267833 40.9345 0.210633C36.4625 0.158633 32.6925 0.247033 30.5553 1.27663C29.1513 1.96823 28.0593 3.50743 28.6833 3.58543C29.5153 3.68943 31.3873 4.08463 32.3753 5.42623C33.6753 7.15783 33.6233 11.0266 33.6233 11.0266C33.6233 11.0266 34.3513 21.6866 31.9073 23.0178C30.1913 23.9122 27.9033 22.0558 22.9113 13.5798C20.3633 9.26383 18.4393 4.44343 18.4393 4.44343C18.4393 4.44343 18.0753 3.56463 17.3993 3.04983C16.6037 2.48823 15.4597 2.28023 15.4597 2.28023L3.55173 2.38423C3.55173 2.38423 1.78373 2.43623 1.16493 3.20583C0.592926 3.87143 1.11292 5.31183 1.11292 5.31183C1.11292 5.31183 10.4209 26.8346 20.9769 37.6714C30.6489 47.6034 41.6261 46.9638 41.6261 46.9638H46.3217H46.3269Z" fill="white"/>
</svg>
