<svg width="71" height="50" viewBox="0 0 71 50" fill="none" xmlns="http://www.w3.org/2000/svg">
<path d="M69.2096 8.05975C68.3981 5.04256 66.0192 2.66414 63.0024 1.8517C57.4912 0.34375 35.4458 0.34375 35.4458 0.34375C35.4458 0.34375 13.4012 0.34375 7.88997 1.79453C4.93123 2.60611 2.49435 5.04299 1.68277 8.05975C0.232422 13.5706 0.232422 24.9993 0.232422 24.9993C0.232422 24.9993 0.232422 36.4856 1.68277 41.9388C2.49521 44.9556 4.8732 47.334 7.89039 48.1464C13.4592 49.6548 35.4466 49.6548 35.4466 49.6548C35.4466 49.6548 57.4912 49.6548 63.0024 48.204C66.0196 47.392 68.3981 45.0136 69.2105 41.9968C70.6604 36.4856 70.6604 25.0573 70.6604 25.0573C70.6604 25.0573 70.7184 13.5706 69.2096 8.05975ZM28.427 35.5575V14.441L46.7589 24.9993L28.427 35.5575Z" fill="#306966"/>
</svg>
