<svg width="80" height="80" viewBox="0 0 80 80" fill="none" xmlns="http://www.w3.org/2000/svg">
<path d="M65 5H20C18.6739 5 17.4021 5.52678 16.4645 6.46447C15.5268 7.40215 15 8.67392 15 10V20H10V25H15V37.5H10V42.5H15V55H10V60H15V70C15 71.3261 15.5268 72.5979 16.4645 73.5355C17.4021 74.4732 18.6739 75 20 75H65C66.3261 75 67.5979 74.4732 68.5355 73.5355C69.4732 72.5979 70 71.3261 70 70V10C70 8.67392 69.4732 7.40215 68.5355 6.46447C67.5979 5.52678 66.3261 5 65 5ZM65 70H20V60H25V55H20V42.5H25V37.5H20V25H25V20H20V10H65V70Z" fill="#CE0F0E"/>
<path d="M35 20H55V25H35V20ZM35 37.5H55V42.5H35V37.5ZM35 55H55V60H35V55Z" fill="#CE0F0E"/>
</svg>
