<svg width="80" height="80" viewBox="0 0 80 80" fill="none" xmlns="http://www.w3.org/2000/svg">
<path d="M38.75 10C22.8725 10 10 22.8725 10 38.75V45H27.5C28.163 45 28.7989 45.2634 29.2678 45.7322C29.7366 46.2011 30 46.837 30 47.5V72.5C30 73.163 29.7366 73.7989 29.2678 74.2678C28.7989 74.7366 28.163 75 27.5 75H16.25C13.2663 75 10.4048 73.8147 8.29505 71.7049C6.18526 69.5952 5 66.7337 5 63.75V38.75C5 20.11 20.11 5 38.75 5C57.39 5 72.5 20.11 72.5 38.75V63.75C72.5 66.7337 71.3147 69.5952 69.2049 71.7049C67.0952 73.8147 64.2337 75 61.25 75H50C49.337 75 48.7011 74.7366 48.2322 74.2678C47.7634 73.7989 47.5 73.163 47.5 72.5V47.5C47.5 46.837 47.7634 46.2011 48.2322 45.7322C48.7011 45.2634 49.337 45 50 45H67.5V38.75C67.5 22.8725 54.6275 10 38.75 10ZM67.5 50H52.5V70H61.25C62.9076 70 64.4973 69.3415 65.6694 68.1694C66.8415 66.9973 67.5 65.4076 67.5 63.75V50ZM10 50V63.75C10 65.4076 10.6585 66.9973 11.8306 68.1694C13.0027 69.3415 14.5924 70 16.25 70H25V50H10Z" fill="#306966"/>
</svg>
