<svg width="80" height="80" viewBox="0 0 80 80" fill="none" xmlns="http://www.w3.org/2000/svg">
<path d="M10 40H40V45H10V40ZM5 27.5H30V32.5H5V27.5Z" fill="#CE0F0E"/>
<path d="M74.7959 41.515L67.2959 24.015C67.1034 23.5652 66.7831 23.1818 66.3746 22.9125C65.9662 22.6432 65.4876 22.4997 64.9984 22.5H57.4984V17.5C57.4984 16.837 57.235 16.2011 56.7662 15.7322C56.2973 15.2634 55.6614 15 54.9984 15H14.9984V20H52.4984V51.39C51.3592 52.0515 50.3623 52.9319 49.565 53.9806C48.7678 55.0293 48.1861 56.2254 47.8534 57.5H32.1434C31.5349 55.1434 30.0878 53.0895 28.0734 51.7235C26.0589 50.3575 23.6154 49.773 21.2009 50.0797C18.7864 50.3864 16.5666 51.5632 14.9576 53.3894C13.3486 55.2157 12.4609 57.5661 12.4609 60C12.4609 62.4339 13.3486 64.7843 14.9576 66.6106C16.5666 68.4368 18.7864 69.6136 21.2009 69.9203C23.6154 70.227 26.0589 69.6425 28.0734 68.2765C30.0878 66.9105 31.5349 64.8566 32.1434 62.5H47.8534C48.3972 64.6456 49.641 66.5486 51.3878 67.9079C53.1347 69.2673 55.285 70.0053 57.4984 70.0053C59.7118 70.0053 61.8621 69.2673 63.609 67.9079C65.3558 66.5486 66.5996 64.6456 67.1434 62.5H72.4984C73.1614 62.5 73.7973 62.2366 74.2662 61.7678C74.735 61.2989 74.9984 60.663 74.9984 60V42.5C74.9985 42.1613 74.9296 41.8262 74.7959 41.515ZM22.4984 65C21.5095 65 20.5428 64.7068 19.7205 64.1573C18.8983 63.6079 18.2574 62.827 17.879 61.9134C17.5006 60.9998 17.4015 59.9945 17.5945 59.0245C17.7874 58.0546 18.2636 57.1637 18.9629 56.4645C19.6621 55.7652 20.553 55.289 21.5229 55.0961C22.4928 54.9031 23.4982 55.0022 24.4118 55.3806C25.3254 55.759 26.1063 56.3999 26.6557 57.2221C27.2052 58.0444 27.4984 59.0111 27.4984 60C27.4971 61.3257 26.9699 62.5967 26.0325 63.5341C25.0951 64.4715 23.8241 64.9987 22.4984 65ZM57.4984 27.5H63.3484L68.7084 40H57.4984V27.5ZM57.4984 65C56.5095 65 55.5428 64.7068 54.7205 64.1573C53.8983 63.6079 53.2574 62.827 52.879 61.9134C52.5006 60.9998 52.4015 59.9945 52.5945 59.0245C52.7874 58.0546 53.2636 57.1637 53.9629 56.4645C54.6621 55.7652 55.553 55.289 56.5229 55.0961C57.4928 54.9031 58.4982 55.0022 59.4118 55.3806C60.3254 55.759 61.1063 56.3999 61.6557 57.2221C62.2051 58.0444 62.4984 59.0111 62.4984 60C62.4971 61.3257 61.9699 62.5967 61.0325 63.5341C60.0951 64.4715 58.8241 64.9987 57.4984 65ZM69.9984 57.5H67.1434C66.5927 55.3586 65.347 53.4604 63.6015 52.1031C61.856 50.7459 59.7095 50.0061 57.4984 50V45H69.9984V57.5Z" fill="#CE0F0E"/>
</svg>
