<svg width="80" height="80" viewBox="0 0 80 80" fill="none" xmlns="http://www.w3.org/2000/svg">
<path d="M10 40H40V45H10V40ZM5 27.5H30V32.5H5V27.5Z" fill="#306966"/>
<path d="M74.7978 41.515L67.2978 24.015C67.1054 23.5652 66.785 23.1818 66.3766 22.9125C65.9682 22.6432 65.4896 22.4997 65.0004 22.5H57.5004V17.5C57.5004 16.837 57.237 16.2011 56.7681 15.7322C56.2993 15.2634 55.6634 15 55.0004 15H15.0003V20H52.5004V51.39C51.3612 52.0515 50.3642 52.9319 49.567 53.9806C48.7698 55.0293 48.188 56.2254 47.8554 57.5H32.1453C31.5369 55.1434 30.0898 53.0895 28.0753 51.7235C26.0609 50.3575 23.6174 49.773 21.2028 50.0797C18.7883 50.3864 16.5685 51.5632 14.9595 53.3894C13.3506 55.2157 12.4629 57.5661 12.4629 60C12.4629 62.4339 13.3506 64.7843 14.9595 66.6106C16.5685 68.4368 18.7883 69.6136 21.2028 69.9203C23.6174 70.227 26.0609 69.6425 28.0753 68.2765C30.0898 66.9105 31.5369 64.8566 32.1453 62.5H47.8554C48.3992 64.6456 49.6429 66.5486 51.3898 67.9079C53.1367 69.2673 55.2869 70.0053 57.5004 70.0053C59.7138 70.0053 61.864 69.2673 63.6109 67.9079C65.3578 66.5486 66.6015 64.6456 67.1453 62.5H72.5004C73.1634 62.5 73.7993 62.2366 74.2681 61.7678C74.737 61.2989 75.0004 60.663 75.0004 60V42.5C75.0005 42.1613 74.9316 41.8262 74.7978 41.515ZM22.5003 65C21.5114 65 20.5447 64.7068 19.7225 64.1573C18.9003 63.6079 18.2594 62.827 17.881 61.9134C17.5025 60.9998 17.4035 59.9945 17.5964 59.0245C17.7893 58.0546 18.2656 57.1637 18.9648 56.4645C19.6641 55.7652 20.555 55.289 21.5249 55.0961C22.4948 54.9031 23.5001 55.0022 24.4138 55.3806C25.3274 55.759 26.1083 56.3999 26.6577 57.2221C27.2071 58.0444 27.5003 59.0111 27.5003 60C27.499 61.3257 26.9718 62.5967 26.0344 63.5341C25.097 64.4715 23.826 64.9987 22.5003 65ZM57.5004 27.5H63.3503L68.7103 40H57.5004V27.5ZM57.5004 65C56.5114 65 55.5447 64.7068 54.7225 64.1573C53.9003 63.6079 53.2594 62.827 52.881 61.9134C52.5025 60.9998 52.4035 59.9945 52.5964 59.0245C52.7893 58.0546 53.2656 57.1637 53.9648 56.4645C54.6641 55.7652 55.555 55.289 56.5249 55.0961C57.4948 54.9031 58.5001 55.0022 59.4138 55.3806C60.3274 55.759 61.1083 56.3999 61.6577 57.2221C62.2071 58.0444 62.5004 59.0111 62.5004 60C62.499 61.3257 61.9718 62.5967 61.0344 63.5341C60.097 64.4715 58.826 64.9987 57.5004 65ZM70.0004 57.5H67.1453C66.5947 55.3586 65.3489 53.4604 63.6034 52.1031C61.858 50.7459 59.7114 50.0061 57.5004 50V45H70.0004V57.5Z" fill="#306966"/>
</svg>
