<svg width="80" height="80" viewBox="0 0 80 80" fill="none" xmlns="http://www.w3.org/2000/svg">
<path d="M60 32.5H55C54.998 30.5115 54.2072 28.605 52.8011 27.1989C51.395 25.7928 49.4885 25.002 47.5 25V20C50.814 20.004 53.9911 21.3222 56.3345 23.6655C58.6778 26.0089 59.996 29.186 60 32.5Z" fill="#306966"/>
<path d="M69.9986 32.5H64.9986C64.9933 27.8603 63.1479 23.4122 59.8671 20.1315C56.5864 16.8507 52.1383 15.0053 47.4986 15V10C53.464 10.0066 59.1831 12.3793 63.4012 16.5974C67.6194 20.8155 69.992 26.5347 69.9986 32.5ZM64.9986 72.5H64.5736C15.4486 69.675 8.47362 28.225 7.49862 15.575C7.34624 13.5919 7.98783 11.6294 9.28228 10.1193C10.5767 8.6092 12.418 7.67511 14.4011 7.5225C14.5995 7.5075 14.7986 7.5 14.9986 7.5H28.1736C29.175 7.49903 30.1536 7.79878 30.9827 8.36041C31.8118 8.92204 32.4531 9.71968 32.8236 10.65L36.6236 20C36.9895 20.9089 37.0803 21.9052 36.8847 22.8652C36.6892 23.8253 36.2159 24.7067 35.5236 25.4L30.1986 30.775C31.027 35.5033 33.2896 39.8625 36.6795 43.2613C40.0693 46.6601 44.4225 48.9341 49.1486 49.775L54.5736 44.4C55.2774 43.7154 56.1671 43.2531 57.1318 43.0708C58.0966 42.8886 59.0936 42.9944 59.9986 43.375L69.4236 47.15C70.3399 47.5322 71.1217 48.1786 71.6693 49.0067C72.2169 49.8348 72.5056 50.8072 72.4986 51.8V65C72.4986 66.9891 71.7085 68.8968 70.3019 70.3033C68.8954 71.7098 66.9878 72.5 64.9986 72.5ZM14.9986 12.5C14.6703 12.499 14.345 12.5627 14.0413 12.6874C13.7377 12.8122 13.4615 12.9955 13.2287 13.2269C12.9958 13.4584 12.8108 13.7334 12.6843 14.0364C12.5577 14.3393 12.4921 14.6642 12.4911 14.9925C12.4911 15.0625 12.4936 15.1317 12.4986 15.2C13.6486 30 21.0236 65 64.8486 67.5C65.5103 67.5396 66.1607 67.3149 66.6567 66.8751C67.1527 66.4354 67.4537 65.8167 67.4936 65.155L67.4986 65V51.8L58.0736 48.025L50.8986 55.15L49.6986 55C27.9486 52.275 24.9986 30.525 24.9986 30.3L24.8486 29.1L31.9486 21.925L28.1986 12.5H14.9986Z" fill="#306966"/>
</svg>
