<svg width="80" height="90" viewBox="0 0 80 90" fill="none" xmlns="http://www.w3.org/2000/svg">
<path d="M40 1.98383L1.66394 23.2655L13.6728 35.4912L33.9956 17.8319L61.7084 26.8879L77.8742 23.2655L40 1.98383Z" fill="url(#paint0_linear_625_1476)"/>
<path d="M77.452 67.133L77.82 23.9447L61.0156 28.0275L66.4542 54.1112L44.5978 73.1114L39.7149 88.6475L77.452 67.133Z" fill="url(#paint1_linear_625_1476)"/>
<path d="M2.5877 66.7409L40.5557 88.6475L45.3513 72.3391L19.5899 63.9146L13.7335 35.8583L2.45061 23.9447L2.5877 66.7409Z" fill="url(#paint2_linear_625_1476)"/>
<path fill-rule="evenodd" clip-rule="evenodd" d="M40.9238 0.242656C40.3521 -0.0808851 39.6479 -0.0808854 39.0762 0.242656L0.92376 21.837C0.352135 22.1606 0 22.7585 0 23.4056V66.5944C0 67.2415 0.352135 67.8394 0.92376 68.1629L39.0762 89.7573C39.6479 90.0809 40.3521 90.0809 40.9238 89.7573L79.0762 68.1629C79.6479 67.8394 80 67.2415 80 66.5944V23.4056C80 22.7585 79.6479 22.1606 79.0762 21.837L40.9238 0.242656ZM4.42958 24.0356L13.059 33.5105L33.0924 16.438C33.5905 16.0135 34.2819 15.8818 34.906 16.0924L61.1986 24.9678L73.2639 22.73L40 3.90261L4.42958 24.0356ZM76.305 25.8527L63.2735 28.2696L68.3338 53.7909C68.4597 54.4261 68.2305 55.079 67.7323 55.5035L46.5811 73.5286L43.1173 84.333L76.305 65.5487V25.8527ZM38.8814 85.4643L42.7246 73.4765L17.716 65.0346C17.0919 64.8239 16.6298 64.3028 16.5039 63.6676L11.1976 36.9057L3.69504 28.668V65.5487L38.8814 85.4643ZM34.7115 19.858L14.925 36.7201L19.9275 61.95L44.7166 70.3178L64.5031 53.4556L59.5006 28.2257L34.7115 19.858Z" fill="white"/>
<defs>
<linearGradient id="paint0_linear_625_1476" x1="22.7879" y1="8.51352" x2="72.9266" y2="46.2372" gradientUnits="userSpaceOnUse">
<stop stop-color="#F1F1F1"/>
<stop offset="1" stop-color="#CACACA"/>
</linearGradient>
<linearGradient id="paint1_linear_625_1476" x1="22.7879" y1="8.51352" x2="72.9266" y2="46.2372" gradientUnits="userSpaceOnUse">
<stop stop-color="#929292"/>
<stop offset="1" stop-color="#F0F0F0"/>
</linearGradient>
<linearGradient id="paint2_linear_625_1476" x1="51.4903" y1="2.2461" x2="-6.07089" y2="32.138" gradientUnits="userSpaceOnUse">
<stop stop-color="white"/>
<stop offset="1" stop-color="#D4D4D4"/>
</linearGradient>
</defs>
</svg>
