<svg width="80" height="91" viewBox="0 0 80 91" fill="none" xmlns="http://www.w3.org/2000/svg">
<path d="M40 2.00587L1.66394 23.524L13.6728 35.8855L33.9956 18.03L61.7084 27.1867L77.8742 23.524L40 2.00587Z" fill="url(#paint0_linear_604_1759)"/>
<path d="M77.452 67.8789L77.82 24.2108L61.0156 28.3389L66.4542 54.7124L44.5978 73.9238L39.7149 89.6325L77.452 67.8789Z" fill="url(#paint1_linear_604_1759)"/>
<path d="M2.5877 67.4824L40.5557 89.6325L45.3513 73.1428L19.5899 64.6248L13.7335 36.2568L2.45061 24.2108L2.5877 67.4824Z" fill="url(#paint2_linear_604_1759)"/>
<path fill-rule="evenodd" clip-rule="evenodd" d="M40.9238 0.245352C40.3521 -0.0817839 39.6479 -0.0817841 39.0762 0.245352L0.92376 22.0797C0.352135 22.4068 0 23.0114 0 23.6657V67.3343C0 67.9886 0.352135 68.5932 0.92376 68.9203L39.0762 90.7546C39.6479 91.0818 40.3521 91.0818 40.9238 90.7546L79.0762 68.9203C79.6479 68.5932 80 67.9886 80 67.3343V23.6657C80 23.0114 79.6479 22.4068 79.0762 22.0797L40.9238 0.245352ZM4.42958 24.3026L13.059 33.8829L33.0924 16.6207C33.5905 16.1914 34.2819 16.0582 34.906 16.2713L61.1986 25.2452L73.2639 22.9826L40 3.94597L4.42958 24.3026ZM76.305 26.1399L63.2735 28.5837L68.3338 54.3886C68.4597 55.0309 68.2305 55.6909 67.7323 56.1202L46.5811 74.3455L43.1173 85.27L76.305 66.277V26.1399ZM38.8814 86.4139L42.7246 74.2929L17.716 65.7572C17.0919 65.5442 16.6298 65.0173 16.5039 64.3751L11.1976 37.3157L3.69504 28.9865V66.277L38.8814 86.4139ZM34.7115 20.0786L14.925 37.1281L19.9275 62.6383L44.7166 71.0991L64.5031 54.0496L59.5006 28.5394L34.7115 20.0786Z" fill="#1B1B1B"/>
<defs>
<linearGradient id="paint0_linear_604_1759" x1="22.7879" y1="8.60811" x2="73.3258" y2="46.2144" gradientUnits="userSpaceOnUse">
<stop stop-color="#3F514F"/>
<stop offset="1" stop-color="#1D3130"/>
</linearGradient>
<linearGradient id="paint1_linear_604_1759" x1="22.7879" y1="8.60811" x2="73.3258" y2="46.2144" gradientUnits="userSpaceOnUse">
<stop stop-color="#1D3130"/>
<stop offset="1" stop-color="#3F514F"/>
</linearGradient>
<linearGradient id="paint2_linear_604_1759" x1="51.4903" y1="2.27106" x2="-6.33936" y2="31.9724" gradientUnits="userSpaceOnUse">
<stop stop-color="#3F514F"/>
<stop offset="1" stop-color="#1D3130"/>
</linearGradient>
</defs>
</svg>
